<svg width="90" height="72" viewBox="0 0 90 72" fill="none" xmlns="http://www.w3.org/2000/svg">
<path d="M65.25 9C68.9766 9 72 12.022 72 15.75C72 17.8734 71.0016 19.8703 69.3 21.15L67.3453 22.6125C57.9797 23.5125 50.1328 29.6437 46.7719 38.0531L38.7 44.1C37.0969 45.2953 34.9031 45.2953 33.3 44.1L2.7 21.15C1.00027 19.8703 0 17.8734 0 15.75C0 12.022 3.02203 9 6.75 9H65.25ZM41.4 47.7L45.1125 44.9156C45.0422 45.6891 45 46.4625 45 47.25C45 53.2266 47.1234 58.725 50.6531 63H9C4.02891 63 0 58.9641 0 54V24.75L30.6 47.7C33.8063 50.1047 38.1937 50.1047 41.4 47.7Z" fill="#0086FF"/>
<path d="M90 47.25C90 58.4297 80.9297 67.5 69.75 67.5C58.5703 67.5 49.5 58.4297 49.5 47.25C49.5 36.0703 58.5703 27 69.75 27C80.9297 27 90 36.0703 90 47.25ZM76.0359 41.1609L67.5 49.6969L63.464 45.6609C62.5922 44.775 61.1578 44.775 60.2859 45.6609C59.4 46.5328 59.4 47.9672 60.2859 48.8391L65.9109 54.4641C66.7828 55.35 68.2172 55.35 69.089 54.4641L79.214 44.3391C80.1 43.4672 80.1 42.0328 79.214 41.1609C78.3422 40.275 76.9078 40.275 76.0359 41.1609Z" fill="#00B13C"/>
</svg>
